<?xml version="1.0" encoding="UTF-8" standalone="no"?>
<!DOCTYPE svg PUBLIC "-//W3C//DTD SVG 1.1//EN" "http://www.w3.org/Graphics/SVG/1.1/DTD/svg11.dtd">
<svg width="100%" height="100%" viewBox="0 0 1000 1000" version="1.1" xmlns="http://www.w3.org/2000/svg" xmlns:xlink="http://www.w3.org/1999/xlink" xml:space="preserve" xmlns:serif="http://www.serif.com/" style="fill-rule:evenodd;clip-rule:evenodd;stroke-linejoin:round;stroke-miterlimit:2;">
    <g transform="matrix(1.10843,0,0,1.10843,-107.211,-107.053)">
        <circle cx="546.472" cy="545.013" r="442.314"/>
    </g>
    <g transform="matrix(0.99903,0,0,0.99903,-1.62366,-150.627)">
        <path d="M416.906,566.132L245.959,548.115C252.404,518.232 261.706,494.721 273.864,477.582C286.022,460.444 303.527,445.576 326.379,432.978C342.785,423.896 365.344,416.865 394.055,411.884C422.765,406.904 453.82,404.413 487.219,404.413C540.832,404.413 583.898,407.416 616.418,413.422C648.937,419.428 676.037,431.952 697.717,450.995C712.951,464.179 724.963,482.856 733.752,507.026C742.541,531.196 746.935,554.267 746.935,576.24L746.935,782.343C746.935,804.316 748.327,821.528 751.11,833.979C753.893,846.43 759.972,862.324 769.347,881.66L601.476,881.66C594.738,869.648 590.344,860.493 588.293,854.194C586.242,847.895 584.191,838.007 582.14,824.531C558.703,847.089 535.412,863.202 512.267,872.87C480.627,885.761 443.859,892.206 401.965,892.206C346.301,892.206 304.04,879.316 275.182,853.535C246.325,827.753 231.896,795.966 231.896,758.173C231.896,722.724 242.297,693.574 263.097,670.722C283.898,647.87 322.277,630.878 378.234,619.745C445.324,606.269 488.83,596.821 508.752,591.401C528.674,585.981 549.767,578.876 572.033,570.087C572.033,548.115 567.492,532.734 558.41,523.945C549.328,515.156 533.361,510.761 510.51,510.761C481.213,510.761 459.24,515.449 444.592,524.824C433.166,532.148 423.937,545.917 416.906,566.132ZM572.033,660.175C547.424,668.964 521.789,676.728 495.129,683.466C458.801,693.134 435.803,702.656 426.135,712.031C416.174,721.699 411.193,732.685 411.193,744.99C411.193,759.052 416.1,770.551 425.915,779.487C435.729,788.422 450.158,792.89 469.201,792.89C489.123,792.89 507.653,788.056 524.792,778.388C541.93,768.72 554.089,756.928 561.266,743.012C568.444,729.096 572.033,711.005 572.033,688.74L572.033,660.175Z" style="fill:white;fill-rule:nonzero;"/>
    </g>
</svg>
