<svg xmlns="http://www.w3.org/2000/svg" xml:space="preserve" fill-rule="evenodd" stroke-linejoin="round" stroke-miterlimit="2" clip-rule="evenodd" viewBox="0 0 500 500"><circle cx="250" cy="250" r="250" fill="#e20051"/><path fill="#fff" fill-rule="nonzero" d="M158.524 317h-37.9l-24.5-47.5-9.9 5.9V317h-33.7V192.9h33.7v53.9c1.7-3.3 5.1-8.6 10.3-15.9l26.1-38h36.7l-39.1 55.6z"/><path fill="#fff" d="M197.511 192.9h33.7V317h-33.7z"/><path fill="#fff" fill-rule="nonzero" d="M286.798 356q-9.15 0-17.4-1.8v-26.1c1.8.3 3.7.7 5.8 1.1q3 .6 6.6.6c5.5 0 9.5-1.7 11.9-5s3.6-9.1 3.6-17.2V192.9h33.7v112c0 16.8-3.7 29.5-11 38.2-7.4 8.6-18.5 12.9-33.2 12.9m156.088-39h-73.7V192.9h73.7v26.9h-40.2v19.5h37.2v26.9h-37.2v23.4h40.2z"/></svg>