<?xml version="1.0"?>
<svg width="512" height="512" xmlns="http://www.w3.org/2000/svg" xmlns:svg="http://www.w3.org/2000/svg">
 <g class="layer">
  <title>Layer 1</title>
  <path d="m408.44,83.68l1.56,1.32l1.57,1.33c23.53,20.16 40.23,48.5 43.43,79.67c1.75,36.98 -6.1,69.09 -31.38,96.93c-8.46,9.23 -17.35,18.06 -26.18,26.93a1983,1983 0 0 0 -7.67,7.75a1505,1505 0 0 1 -6,6.04a843,843 0 0 0 -4.17,4.23c-7.35,7.33 -14.57,13.16 -25.29,13.37c-8.26,-0.13 -14.51,-2.42 -20.51,-8.19c-5.99,-6.87 -7.36,-13.38 -7.46,-22.37c1.95,-10.88 9.12,-17.79 16.77,-25.18q1.64,-1.62 3.28,-3.24c2.86,-2.82 5.73,-5.63 8.61,-8.44q6.88,-6.71 13.73,-13.47a934,934 0 0 1 4.76,-4.63c15.66,-15.32 26.32,-32.8 27.01,-55.23c-0.64,-19.64 -8.58,-35.88 -22.5,-49.5l-2.14,-2.24c-12.26,-12.05 -29.47,-17.31 -46.34,-17.18c-23.74,0.83 -40.48,13.87 -56.45,30.32c-1.56,1.6 -3.12,3.2 -4.69,4.79a2906,2906 0 0 0 -13.29,13.57q-4.09,4.19 -8.21,8.35a401,401 0 0 0 -3.08,3.17c-6.82,7.07 -12.95,12.02 -22.83,13.75c-8.77,-0.11 -15.74,-2.14 -22.34,-8.09c-5,-5.43 -7.7,-12.19 -8.07,-19.56c1.62,-14.28 10.92,-22.68 20.66,-32.43l3.29,-3.32q3.45,-3.46 6.91,-6.92q3.5,-3.5 6.99,-7.03c24.93,-25.22 24.93,-25.22 37.59,-33.18l2.44,-1.55a91,91 0 0 1 5.87,-3.26l2.11,-1.09c7.9,-3.95 16.08,-6.76 24.58,-9.1l3.67,-1.03c36.03,-8.35 75.51,1.11 103.77,24.71" fill="#007fff" id="svg_1" transform="matrix(1 0 0 1 0 0)"/>
  <path d="m173.28,195.55c6.71,5.65 10.86,11.63 11.98,20.51c0.41,7.73 -1.73,14.77 -6.57,20.83c-2.92,3.17 -6.03,6.13 -9.14,9.1q-1.71,1.68 -3.42,3.36a1459,1459 0 0 1 -8.99,8.75q-7.19,6.96 -14.33,13.98a747,747 0 0 1 -4.97,4.8c-14.76,14.34 -25.52,31.3 -26.2,52.43c-0.19,20.11 7.37,37.36 21.36,51.69c13.33,12.97 31.11,19.57 49.56,19.42c15.17,-0.53 29.93,-6.29 41.42,-16.2l1.77,-1.52c6.04,-5.32 11.68,-11.05 17.33,-16.79l1.49,-1.51c4.61,-4.69 9.21,-9.38 13.79,-14.1q3.8,-3.91 7.64,-7.79a514,514 0 0 0 4.21,-4.35c6.27,-6.32 11.98,-10.14 20.82,-11.69c8.91,0.11 15.83,2.16 22.41,8.34c5.94,6.53 7.74,13.49 7.56,22.19c-1.92,12.61 -11.43,20.74 -20.07,29.37l-3.24,3.25q-3.39,3.41 -6.79,6.8c-2.87,2.86 -5.73,5.74 -8.59,8.62q-3.34,3.36 -6.7,6.71a973,973 0 0 0 -3.16,3.18c-24.92,25.13 -55.42,40.19 -91.14,40.38c-37.23,0.04 -66.61,-14.69 -92.71,-40.7c-23.91,-25.34 -32.37,-57.07 -31.91,-91.15c1.13,-37.38 22.04,-65.26 47.41,-90.8l1.55,-1.56q4.04,-4.07 8.1,-8.14q4.15,-4.18 8.28,-8.37a1745,1745 0 0 1 6.46,-6.49a643,643 0 0 0 3.05,-3.09c11.41,-11.61 26.25,-19.99 41.74,-9.46" fill="#007fff" id="svg_2"/>
  <path d="m334,174c6.37,5.87 9.42,12.76 10.07,21.38c-0.26,9.96 -5.41,17.2 -12.24,24.06l-1.54,1.55q-2.54,2.56 -5.09,5.1l-3.66,3.68q-4.96,4.98 -9.92,9.95q-3.11,3.11 -6.21,6.22q-10.83,10.86 -21.68,21.7a11731,11731 0 0 0 -20.17,20.22q-8.66,8.7 -17.34,17.38a4660,4660 0 0 0 -10.35,10.37a2638,2638 0 0 1 -9.74,9.75a845,845 0 0 0 -3.56,3.57c-8.14,8.22 -14.79,14.43 -26.9,15.1c-8.08,-0.09 -14.4,-3.25 -20.4,-8.56c-5.16,-5.41 -6.86,-11.66 -7.65,-18.97c0.78,-7.26 2.2,-12.61 7.26,-18.07l2.46,-2.64c4.79,-5.02 9.67,-9.96 14.57,-14.88l3.51,-3.53q5.71,-5.74 11.43,-11.47l3.95,-3.96q9.29,-9.32 18.58,-18.62q10.7,-10.71 21.37,-21.45q8.28,-8.32 16.58,-16.63q4.94,-4.94 9.88,-9.91q4.63,-4.66 9.28,-9.3a765,765 0 0 0 3.39,-3.41c12.38,-12.52 27.99,-21.05 44.12,-8.63" fill="#007fff" id="svg_3" transform="matrix(1 0 0 1 0 0)"/>
 </g>
</svg>