<svg xmlns="http://www.w3.org/2000/svg" width="512" height="512"><path fill="#00C5C0" d="M408.441 83.68 410 85l1.566 1.325C435.102 106.49 451.8 134.83 455 166c1.748 36.98-6.095 69.095-31.379 96.93-8.463 9.226-17.348 18.058-26.183 26.927a1983 1983 0 0 0-7.667 7.752 1505 1505 0 0 1-5.997 6.036 843 843 0 0 0-4.176 4.235c-7.352 7.328-14.564 13.163-25.286 13.37-8.26-.133-14.512-2.425-20.515-8.188-5.991-6.876-7.355-13.382-7.461-22.375 1.958-10.873 9.126-17.792 16.773-25.18q1.64-1.614 3.277-3.233c2.86-2.824 5.733-5.634 8.61-8.44q6.888-6.717 13.736-13.476a934 934 0 0 1 4.753-4.632c15.66-15.318 26.329-32.8 27.015-55.226-.64-19.64-8.58-35.878-22.5-49.5l-2.145-2.242c-12.257-12.047-29.466-17.313-46.338-17.178-23.738.833-40.477 13.868-56.449 30.324-1.555 1.6-3.12 3.192-4.686 4.781a2906 2906 0 0 0-13.297 13.573q-4.085 4.196-8.208 8.356a401 401 0 0 0-3.081 3.164c-6.815 7.07-12.946 12.022-22.827 13.753-8.773-.11-15.737-2.146-22.344-8.094-4.992-5.426-7.695-12.185-8.062-19.562 1.612-14.278 10.917-22.678 20.652-32.426l3.297-3.317q3.448-3.465 6.906-6.92 3.506-3.506 6.99-7.032C253.34 82.96 253.34 82.96 266 75l2.44-1.554a91 91 0 0 1 5.873-3.259l2.109-1.09C284.317 65.152 292.505 62.345 301 60l3.672-1.031c36.032-8.351 75.505 1.106 103.77 24.71"/><path fill="#006DD9" d="M173.277 195.547c6.718 5.654 10.868 11.628 11.98 20.512.414 7.735-1.723 14.77-6.57 20.835-2.916 3.165-6.025 6.127-9.136 9.098q-1.711 1.675-3.416 3.357a1459 1459 0 0 1-8.99 8.754q-7.194 6.96-14.333 13.978a747 747 0 0 1-4.967 4.8c-14.763 14.338-25.524 31.296-26.2 52.43-.19 20.109 7.365 37.355 21.355 51.689 13.334 12.971 31.107 19.567 49.556 19.42 15.17-.533 29.935-6.293 41.424-16.201l1.767-1.52c6.044-5.324 11.685-11.054 17.331-16.793l1.488-1.51c4.612-4.687 9.216-9.381 13.795-14.1q3.8-3.91 7.635-7.783a514 514 0 0 0 4.217-4.354c6.27-6.32 11.98-10.141 20.818-11.69 8.908.113 15.828 2.16 22.406 8.344 5.948 6.522 7.743 13.484 7.563 22.187-1.916 12.614-11.427 20.74-20.066 29.367l-3.244 3.257q-3.39 3.401-6.79 6.793c-2.871 2.864-5.73 5.74-8.586 8.619q-3.346 3.365-6.705 6.718a973 973 0 0 0-3.158 3.173c-24.92 25.133-55.42 40.196-91.139 40.385-37.233.042-66.61-14.688-92.714-40.707-23.906-25.333-32.365-57.065-31.91-91.148 1.13-37.374 22.047-65.256 47.41-90.793l1.55-1.562q4.045-4.076 8.1-8.144 4.153-4.176 8.286-8.372a1745 1745 0 0 1 6.453-6.491 643 643 0 0 0 3.053-3.088c11.412-11.61 26.246-19.983 41.737-9.46"/><path fill="#0098CD" d="M334 174c6.37 5.867 9.424 12.761 10.066 21.379-.252 9.958-5.408 17.205-12.239 24.061l-1.54 1.554q-2.538 2.554-5.089 5.098l-3.657 3.678q-4.956 4.98-9.924 9.948-3.106 3.108-6.208 6.218-10.83 10.859-21.677 21.703a11731 11731 0 0 0-20.17 20.22q-8.661 8.7-17.343 17.38a4660 4660 0 0 0-10.346 10.372 2638 2638 0 0 1-9.741 9.746 845 845 0 0 0-3.56 3.575c-8.138 8.216-14.792 14.431-26.904 15.1-8.079-.095-14.393-3.25-20.398-8.563-5.164-5.407-6.862-11.661-7.645-18.969.778-7.261 2.197-12.611 7.26-18.069l2.451-2.643c4.797-5.02 9.67-9.96 14.574-14.875l3.512-3.532q5.709-5.738 11.426-11.467l3.956-3.969q9.285-9.313 18.578-18.62 10.695-10.71 21.368-21.444 8.28-8.324 16.58-16.627 4.945-4.948 9.876-9.913 4.63-4.664 9.286-9.303a765 765 0 0 0 3.39-3.41c12.38-12.523 27.984-21.049 44.118-8.628"/></svg>