<?xml version="1.0" encoding="UTF-8" standalone="no"?>
<!DOCTYPE svg PUBLIC "-//W3C//DTD SVG 1.1//EN" "http://www.w3.org/Graphics/SVG/1.1/DTD/svg11.dtd">
<svg width="100%" height="100%" viewBox="0 0 490 313" version="1.1" xmlns="http://www.w3.org/2000/svg" xmlns:xlink="http://www.w3.org/1999/xlink" xml:space="preserve" xmlns:serif="http://www.serif.com/" style="fill-rule:evenodd;clip-rule:evenodd;stroke-linejoin:round;stroke-miterlimit:2;">
    <g id="Artboard1" transform="matrix(0.968318,0,0,0.899036,-209.377,-341.538)">
        <rect x="216.228" y="379.894" width="505.113" height="347.714" style="fill:none;"/>
        <g transform="matrix(1.03272,0,0,1.1123,-19.4576,-73.5805)">
            <text x="231.938px" y="484.973px" style="font-family:'HelveticaNeueLT-BoldCond', 'Helvetica Neue LT';font-weight:700;font-size:90px;">ACTION</text>
            <g transform="matrix(90,0,0,90,422.018,580.373)">
            </g>
            <text x="231.938px" y="580.373px" style="font-family:'HelveticaNeueLT-BoldCond', 'Helvetica Neue LT';font-weight:700;font-size:90px;">PLAN</text>
        </g>
        <g transform="matrix(1.03272,0,0,1.1123,-19.4576,77.6569)">
            <path d="M559.903,537.765C558.741,540.255 556.849,542.436 554.317,543.955L499.097,577.058C492.341,581.109 483.567,578.912 479.517,572.156C475.467,565.399 477.663,556.626 484.42,552.576L536.165,521.554L562.858,470.274L552.771,390.903L525.099,397.001L531.776,449.542C532.769,457.357 527.231,464.507 519.416,465.501C511.602,466.494 504.451,460.956 503.458,453.141L495.342,389.272C495.228,388.382 495.2,387.501 495.25,386.636C494.852,379.762 499.492,373.414 506.429,371.884L574.725,356.833C575.971,356.558 577.214,356.455 578.431,356.509C582.764,356.035 587.26,357.544 590.452,360.979L639.868,414.161L692.4,397.589C699.913,395.219 707.936,399.394 710.306,406.907C712.676,414.42 708.5,422.443 700.988,424.812L641.589,443.549C639.649,444.439 637.555,444.868 635.467,444.843C630.528,444.903 625.855,442.373 623.212,438.172L611.878,425.973L615.605,455.305L672.819,455.305C680.697,455.305 687.092,461.701 687.092,469.578C687.092,469.716 687.09,469.854 687.086,469.992C687.112,470.872 687.056,471.767 686.911,472.667L676.751,536.243C675.509,544.021 668.184,549.327 660.406,548.084C652.627,546.841 647.321,539.517 648.563,531.738L656.216,483.851L587.972,483.851L560.078,537.438C560.021,537.548 559.963,537.657 559.903,537.765ZM586.65,282.923C604.834,282.923 619.598,297.687 619.598,315.872C619.598,334.056 604.834,348.819 586.65,348.819C568.465,348.819 553.702,334.056 553.702,315.872C553.702,297.687 568.465,282.923 586.65,282.923Z"/>
        </g>
        <g transform="matrix(1.03272,0,0,1.1123,-19.4576,-73.5805)">
            <g transform="matrix(35,0,0,35,493.538,646.313)">
            </g>
            <text x="235.938px" y="646.313px" style="font-family:'EliceDXNeolli-Md', 'Elice DX Neolli', sans-serif;font-weight:500;font-size:35px;">개발자 취업, 이직</text>
        </g>
        <g transform="matrix(1.03272,0,0,1.1123,-19.4576,-101.428)">
            <path d="M680.286,487.288L688.6,503.738L706.814,506.562L693.738,519.552L696.681,537.747L680.286,529.326L663.89,537.747L666.833,519.552L653.757,506.562L671.971,503.738L680.286,487.288Z" style="fill-rule:nonzero;"/>
        </g>
    </g>
</svg>
