<?xml version="1.0" encoding="utf-8"?>
<!-- Generator: Adobe Illustrator 25.4.1, SVG Export Plug-In . SVG Version: 6.00 Build 0)  -->
<svg version="1.1" id="레이어_1" xmlns="http://www.w3.org/2000/svg" xmlns:xlink="http://www.w3.org/1999/xlink" x="0px"
	 y="0px" viewBox="0 0 500 500" style="enable-background:new 0 0 500 500;" xml:space="preserve">
<style type="text/css">
	.st0{fill:#FC4470;}
	.st1{opacity:0.51;fill:none;stroke:#FC4470;stroke-width:2;stroke-miterlimit:10;}
	.st2{opacity:0.35;}
	.st3{fill:#FFFFFF;}
</style>
<g>
	<g>
		<path class="st0" d="M51.6,195.8c5.7,0,11.3,0,17,0c0,9.3,0,18.7,0,28c0.1,0,0.1,0,0.2,0c4.2-9.5,8.4-18.9,12.6-28
			c6,0,12.1,0,18.1,0c-5.5,10.1-11,20.5-16.5,31.2c6.1,13,12.2,25.7,18.3,38.1c-6.4,0.7-12.9,1.4-19.3,2.1
			c-3.3-7.9-6.6-15.9-9.9-24.1c-1.2,2.1-2.4,4.3-3.6,6.4c0,6.4,0,12.9,0,19.3c-5.6,0.7-11.3,1.5-16.9,2.3
			C51.6,245.9,51.6,220.9,51.6,195.8z"/>
		<path class="st0" d="M102.3,195.7c5.7,0,11.3,0,17,0c-0.1,22.5-0.1,45-0.2,67.5c-5.7,0.5-11.3,1.1-17,1.7
			C102.2,241.8,102.3,218.7,102.3,195.7z"/>
		<path class="st0" d="M163.9,195.6c0,14.7-0.1,29.4-0.1,44.1c0,7.7-1.8,13.3-5.4,16.8c-3.6,3.5-8.9,5.5-15.9,6
			c-7.1,0.6-12.2-0.8-15.2-4.3c-3-3.5-4.5-8.7-4.5-15.8c0-0.5,0-0.9,0-1.4c5.1-0.3,10.2-0.6,15.3-0.9c0,1.1,0,2.2,0,3.2
			c0,3.1,0.4,5.2,1.2,6.2c0.8,1,1.9,1.4,3.1,1.4c1.3-0.1,2.3-0.7,3.2-1.8c0.8-1.1,1.2-3.2,1.3-6.3c0-15.8,0.1-31.5,0.1-47.3
			C152.5,195.6,158.2,195.6,163.9,195.6z"/>
		<path class="st0" d="M170.6,195.6c12.9,0,25.7,0,38.6,0c0,4.4,0,8.8,0,13.2c-7.2,0-14.4,0.1-21.6,0.2c0,3.6,0,7.2,0,10.8
			c6.8-0.1,13.5-0.2,20.3-0.3c0,4.2,0,8.5,0,12.7c-6.8,0.1-13.5,0.3-20.3,0.5c0,4.2,0,8.3,0,12.5c7.5-0.3,15-0.5,22.5-0.7
			c0,4.4,0,8.8,0,13.2c-13.2,0.4-26.3,0.9-39.5,1.7C170.5,238.1,170.6,216.9,170.6,195.6z"/>
		<path class="st0" d="M216.5,195.6c5.1,0,10.2,0,15.3,0c0,5.2,0,10.4,0,15.6c0,5.6-1.2,9.8-3.6,12.5c-2.4,2.8-6.3,4.2-11.8,4.4
			c0-2.5,0-5,0-7.5c2.2-0.3,3.7-1,4.6-2.1c0.9-1.2,1.3-2.9,1.3-5.2c0-0.3,0-0.7,0-1c-1.9,0-3.9,0-5.8,0
			C216.4,206.7,216.4,201.1,216.5,195.6z"/>
		<path class="st0" d="M265.4,213.3c0-0.5,0-1,0-1.5c0-1.8-0.4-3.4-1.2-4.7c-0.8-1.3-2-1.9-3.7-1.9c-1.8,0-3.2,0.6-4,1.7
			c-0.9,1.1-1.3,2.4-1.3,3.7c0,2,0.7,3.6,2.1,4.8c1.4,1.2,3.1,2.2,5.2,3.1c2.1,0.9,4.3,1.8,6.7,2.7c2.4,0.9,4.6,2.1,6.7,3.5
			c2.1,1.5,3.8,3.4,5.2,5.7c1.4,2.4,2.1,5.4,2.1,9.2c0,6.6-2,11.4-5.9,14.4c-4,3-9.7,4.4-17.2,4.4c-3.5,0-6.7-0.3-9.4-0.9
			c-2.7-0.6-5-1.6-6.9-3c-1.9-1.4-3.3-3.1-4.3-5.3c-1-2.2-1.5-4.9-1.5-8.1c0-0.7,0-1.4,0-2.2c5.5,0,11-0.1,16.5,0c0,0.5,0,1,0,1.5
			c0,2.6,0.5,4.5,1.6,5.6c1,1.1,2.4,1.6,4,1.6c1.8,0,3.1-0.6,4.1-1.7c0.9-1.1,1.4-2.5,1.4-4.2c0-2-0.7-3.6-2-4.8
			c-1.3-1.2-3-2.2-4.9-3c-2-0.8-4.1-1.7-6.4-2.6c-2.3-0.9-4.5-2-6.4-3.4c-2-1.4-3.6-3.2-4.9-5.4c-1.3-2.2-2-5.2-2-8.8
			c0-6.3,1.8-11,5.3-14.3c3.5-3.3,8.9-4.9,16.1-4.9c7.4,0,12.8,1.5,16.1,4.5c3.3,3,5,7.9,5,14.5C276,213.4,270.7,213.3,265.4,213.3z
			"/>
		<path class="st0" d="M312.8,195.6c5.7,0,11.3,0,17,0c0,16.7,0.1,33.4,0.1,50.1c7,0.3,14,0.6,20.9,1c0,4.6,0,9.2,0,13.8
			c-12.6-0.9-25.3-1.6-37.9-2.1C312.9,237.5,312.8,216.5,312.8,195.6z"/>
		<path class="st0" d="M365.7,195.6c7.1,0,14.2,0,21.4,0c5.4,22.6,10.7,45.7,16,69.4c-6-0.6-12-1.2-18.1-1.8c-0.6-4-1.2-8-1.8-12
			c-4.5-0.3-9-0.7-13.5-1c-0.6,3.8-1.1,7.7-1.7,11.5c-6-0.5-12.1-0.9-18.1-1.3C355.3,239.2,360.5,217.6,365.7,195.6z M376.5,209.3
			c-0.1,0-0.1,0-0.2,0c-1.5,9.4-3.1,18.8-4.6,28.1c3.2,0.2,6.3,0.3,9.5,0.5C379.7,228.4,378.1,218.8,376.5,209.3z"/>
		<path class="st0" d="M406.4,195.7c8.6,0,17.1,0,25.7,0.1c6.1,0,10.6,1.7,13.5,5.1c2.9,3.4,4.3,8,4.3,13.6c0,2-0.2,3.9-0.6,5.7
			c-0.4,1.8-1,3.4-1.8,4.9c-0.8,1.5-1.9,2.7-3.1,3.6c-1.3,1-2.8,1.6-4.6,1.9c0,0.1,0,0.1,0,0.2c2.1,0.3,3.9,1.1,5.5,2.3
			c1.5,1.2,2.8,2.6,3.7,4.3c1,1.7,1.7,3.5,2.1,5.5c0.5,2,0.7,3.9,0.7,5.9c0,3.3-0.4,6.3-1.1,8.9c-0.7,2.6-1.9,4.8-3.4,6.6
			c-1.5,1.8-3.6,3-6,3.7c-2.5,0.7-5.5,0.9-9,0.4c-8.5-1.1-17.1-2.1-25.6-3C406.5,242.2,406.4,218.9,406.4,195.7z M423.4,223.8
			c1.4,0.1,2.7,0.1,4.1,0.2c1.8,0.1,3.1-0.6,4-2c0.9-1.4,1.4-3.1,1.4-5.1c0-2-0.5-3.8-1.4-5.3c-0.9-1.5-2.3-2.3-4-2.3
			c-1.4,0-2.7-0.1-4.1-0.1C423.4,214.1,423.4,218.9,423.4,223.8z M423.4,253.9c1.6,0.2,3.2,0.3,4.7,0.5c1.6,0.2,3-0.4,4.2-1.8
			c1.2-1.3,1.8-3.5,1.8-6.6c0-2.9-0.6-5.1-1.8-6.7c-1.2-1.6-2.6-2.4-4.2-2.5c-1.6-0.1-3.2-0.2-4.7-0.3
			C423.4,242.3,423.4,248.1,423.4,253.9z"/>
	</g>
</g>
<path class="st1" d="M471.2,349H32c-9,0-16.4-7.3-16.4-16.4V174.4c0-9,7.3-16.4,16.4-16.4h439.2c9,0,16.4,7.3,16.4,16.4v158.2
	C487.6,341.7,480.3,349,471.2,349z"/>
<g class="st2">
	<path class="st3" d="M181.8,306.2c0,6.2-5.1,11.3-11.3,11.3c-6.3,0-11.3-5.1-11.3-11.3c0-6.2,5-11.3,11.3-11.3
		C176.7,294.9,181.8,300,181.8,306.2z M164,306.2c0,3.6,2.9,6.4,6.5,6.4c3.5,0,6.4-2.9,6.4-6.4c0-3.5-2.9-6.4-6.4-6.4
		C166.9,299.8,164,302.7,164,306.2z"/>
	<path class="st3" d="M203.3,303.5c0,3.2-1.5,5.8-3.9,7.1l4.5,6.6h-6.6l-3.3-5.4h-3.9v5.4h-5.3v-21.9h10.6
		C199.9,295.3,203.3,298.7,203.3,303.5z M190.2,300.2v6.7h4.5c1.8,0,3.3-1.5,3.3-3.3c0-1.8-1.4-3.3-3.2-3.3H190.2z"/>
	<path class="st3" d="M212.9,317.2h-5.3v-21.9h5.3V317.2z"/>
	<path class="st3" d="M238.5,299.7l-4.6,2.3c-1.1-1.4-2.8-2.2-5.3-2.2c-3.8,0-6.5,2.7-6.5,6.3c0,3.5,2.7,6.5,6.6,6.5
		c2.3,0,4.2-0.7,5.4-1.8v-2.1h-6.7v-4.1h11.3v8.1c-0.2,0.3-3.6,4.8-10,4.8c-7.2,0-11.9-5.4-11.9-11.3c0-6.1,5-11.3,11.9-11.3
		C232.9,294.9,236.3,296.8,238.5,299.7z"/>
	<path class="st3" d="M248,317.2h-5.3v-21.9h5.3V317.2z"/>
	<path class="st3" d="M274.2,317.2h-5.3l-11.1-13.4v13.4h-5.3v-21.9h5.3l11.1,13.4v-13.4h5.3V317.2z"/>
	<path class="st3" d="M295.1,313.8h-10.6l-1.4,3.4h-5.6l9.4-21.9h5.9l9.4,21.9h-5.6L295.1,313.8z M293.3,309.5l-3.4-8.2l-3.5,8.2
		H293.3z"/>
	<path class="st3" d="M311,312.3h11.5v4.9h-16.8v-21.9h5.3V312.3z"/>
	<path class="st3" d="M343.1,302.2h-5.2c0-1.1-1.3-2.6-3.5-2.6c-1.6,0-3.5,0.7-3.5,2c0,1.1,1.4,1.5,4.5,2.3c3.4,0.9,8.3,2.1,8.3,6.9
		c0,4.2-3.7,6.8-8.8,6.8c-6.9,0-9.7-4.6-9.7-8h5.2c0,0,0.4,3.5,4.8,3.5c2.3,0,3.2-1,3.2-1.9c0-1.4-1.8-1.9-3.9-2.3
		c-3.3-0.8-9-2-9-6.9c0-4,3.9-7,8.9-7C340.1,294.9,343.1,298.8,343.1,302.2z"/>
</g>
</svg>
