<?xml version="1.0" encoding="UTF-8" standalone="no"?>
<!DOCTYPE svg PUBLIC "-//W3C//DTD SVG 1.1//EN" "http://www.w3.org/Graphics/SVG/1.1/DTD/svg11.dtd">
<svg width="100%" height="100%" viewBox="0 0 500 500" version="1.1" xmlns="http://www.w3.org/2000/svg" xmlns:xlink="http://www.w3.org/1999/xlink" xml:space="preserve" xmlns:serif="http://www.serif.com/" style="fill-rule:evenodd;clip-rule:evenodd;stroke-linejoin:round;stroke-miterlimit:2;">
    <circle cx="250" cy="250" r="250" style="fill:rgb(226,0,81);"/>
    <g>
        <g transform="matrix(1,0,0,1,-32.9763,0)">
            <path d="M191.5,317L153.6,317L129.1,269.5L119.2,275.4L119.2,317L85.5,317L85.5,192.9L119.2,192.9L119.2,246.8C120.9,243.5 124.3,238.2 129.5,230.9L155.6,192.9L192.3,192.9L153.2,248.5L191.5,317Z" style="fill:white;fill-rule:nonzero;"/>
        </g>
        <g transform="matrix(1,0,0,1,-7.38897,0)">
            <rect x="204.9" y="192.9" width="33.7" height="124.1" style="fill:white;"/>
        </g>
        <g transform="matrix(1,0,0,1,31.0984,0)">
            <path d="M255.7,356C249.6,356 243.8,355.4 238.3,354.2L238.3,328.1C240.1,328.4 242,328.8 244.1,329.2C246.1,329.6 248.3,329.8 250.7,329.8C256.2,329.8 260.2,328.1 262.6,324.8C265,321.5 266.2,315.7 266.2,307.6L266.2,192.9L299.9,192.9L299.9,304.9C299.9,321.7 296.2,334.4 288.9,343.1C281.5,351.7 270.4,356 255.7,356Z" style="fill:white;fill-rule:nonzero;"/>
        </g>
        <g transform="matrix(1,0,0,1,42.4857,0)">
            <path d="M400.4,317L326.7,317L326.7,192.9L400.4,192.9L400.4,219.8L360.2,219.8L360.2,239.3L397.4,239.3L397.4,266.2L360.2,266.2L360.2,289.6L400.4,289.6L400.4,317Z" style="fill:white;fill-rule:nonzero;"/>
        </g>
    </g>
</svg>
